<svg width="36" height="34" viewBox="0 0 36 34" fill="none" xmlns="http://www.w3.org/2000/svg">
<path d="M13.0012 10.625C12.7361 10.625 12.4818 10.7369 12.2943 10.9362C12.1068 11.1355 12.0015 11.4057 12.0015 11.6875C12.0015 11.9693 12.1068 12.2395 12.2943 12.4388C12.4818 12.6381 12.7361 12.75 13.0012 12.75H22.9988C23.2639 12.75 23.5182 12.6381 23.7057 12.4388C23.8932 12.2395 23.9985 11.9693 23.9985 11.6875C23.9985 11.4057 23.8932 11.1355 23.7057 10.9362C23.5182 10.7369 23.2639 10.625 22.9988 10.625H13.0012ZM10.002 15.9375C10.002 15.6557 10.1073 15.3855 10.2948 15.1862C10.4823 14.9869 10.7366 14.875 11.0017 14.875H24.9983C25.2634 14.875 25.5177 14.9869 25.7052 15.1862C25.8927 15.3855 25.998 15.6557 25.998 15.9375C25.998 16.2193 25.8927 16.4895 25.7052 16.6888C25.5177 16.8881 25.2634 17 24.9983 17H11.0017C10.7366 17 10.4823 16.8881 10.2948 16.6888C10.1073 16.4895 10.002 16.2193 10.002 15.9375ZM13.0012 19.125C12.7361 19.125 12.4818 19.2369 12.2943 19.4362C12.1068 19.6355 12.0015 19.9057 12.0015 20.1875C12.0015 20.4693 12.1068 20.7395 12.2943 20.9388C12.4818 21.1381 12.7361 21.25 13.0012 21.25H22.9988C23.2639 21.25 23.5182 21.1381 23.7057 20.9388C23.8932 20.7395 23.9985 20.4693 23.9985 20.1875C23.9985 19.9057 23.8932 19.6355 23.7057 19.4362C23.5182 19.2369 23.2639 19.125 22.9988 19.125H13.0012ZM3.00373 3.54059e-06C2.29543 -0.00111792 1.60961 0.264206 1.06774 0.748983C0.525869 1.23376 0.162921 1.90671 0.043177 2.64863C-0.0765669 3.39055 0.0546212 4.15357 0.413506 4.80255C0.772391 5.45153 1.33581 5.94458 2.00398 6.19438V21.25C2.00398 22.9408 2.63596 24.5623 3.7609 25.7578C4.88584 26.9534 6.41158 27.625 8.00249 27.625H17.0002V31.875H11.0017C10.7366 31.875 10.4823 31.9869 10.2948 32.1862C10.1073 32.3855 10.002 32.6557 10.002 32.9375C10.002 33.2193 10.1073 33.4895 10.2948 33.6888C10.4823 33.8881 10.7366 34 11.0017 34H24.9983C25.2634 34 25.5177 33.8881 25.7052 33.6888C25.8927 33.4895 25.998 33.2193 25.998 32.9375C25.998 32.6557 25.8927 32.3855 25.7052 32.1862C25.5177 31.9869 25.2634 31.875 24.9983 31.875H18.9998V27.625H27.9975C29.5884 27.625 31.1142 26.9534 32.2391 25.7578C33.364 24.5623 33.996 22.9408 33.996 21.25V6.19438C34.6642 5.94458 35.2276 5.45153 35.5865 4.80255C35.9454 4.15357 36.0766 3.39055 35.9568 2.64863C35.8371 1.90671 35.4741 1.23376 34.9323 0.748983C34.3904 0.264206 33.7046 -0.00111792 32.9963 3.54059e-06H3.00373ZM4.00348 21.25V6.375H31.9965V21.25C31.9965 22.3772 31.5752 23.4582 30.8252 24.2552C30.0753 25.0522 29.0581 25.5 27.9975 25.5H8.00249C6.94188 25.5 5.92472 25.0522 5.17476 24.2552C4.4248 23.4582 4.00348 22.3772 4.00348 21.25Z" fill="#006CAE"/>
</svg>
